PathFileType	4	(X/Y/Z)	OpenSim_Sub08_EMGBaseline_Accel.trc
DataRate	CameraRate	NumFrames	NumMarkers	Units	OrigDataRate	OrigDataStartFrame	OrigNumFrames
100	100	37	8	m	100	4991	6654
Frame#	Time	torso_imu_offset_imu	pelvis_imu_offset_imu	tibia_r_imu_offset_imu	femur_r_imu_offset_imu	tibia_l_imu_offset_imu	femur_l_imu_offset_imu	toes_r_imu_offset_imu	toes_l_imu_offset_imu
				X1	Y1	Z1	X2	Y2	Z2	X3	Y3	Z3	X4	Y4	Z4	X5	Y5	Z5	X6	Y6	Z6	X7	Y7	Z7	X8		Y8	Z8	

4991	49.90000000	9.75844851	0.65914542	6.11794753	9.82156735	-0.33399104	4.37001129	1.36407646	16.43125627	-4.42567822	11.40487583	-3.32650812	2.88069474	9.31594095	0.31234828	-1.47407282	8.90409242	-0.76203652	-0.15072390	10.65887516	-17.17848475	8.48742357	5.16847702	1.20847771	10.92660319
4992	49.91000000	10.43627756	0.76479133	6.10863890	10.25992412	0.89053348	4.24052438	2.17709670	17.47530475	-3.12593955	12.17959935	-3.08515784	3.15859977	9.13274466	-0.73612326	-1.32722381	8.83471670	-1.66071479	-1.09980377	2.11603671	-19.25412486	3.53150538	5.73620795	1.40769855	10.71580667
4993	49.92000000	11.47784374	0.71007822	6.21339674	10.35453689	1.80060557	4.20630349	4.33328113	15.63076339	-0.43316309	12.55115329	-3.13637298	3.07933783	9.68324710	-2.14227804	-1.58343024	9.11632382	-1.88762631	-1.78748238	-0.89869437	-12.98814890	3.61958924	5.97546649	0.87325335	10.66787415
4994	49.93000000	11.58782002	0.66913436	6.36452612	10.26664462	2.30412389	4.17145464	5.53825986	12.08945908	-0.23074982	12.33392396	-3.46567820	2.81462957	10.10022582	-3.86725066	-1.70855241	9.65415227	-1.64914434	-2.27591439	-0.91793946	-9.06218327	3.64040680	6.04963836	0.47354090	10.85061004
4995	49.94000000	10.77456945	0.72740706	6.47930666	10.17954970	2.23634764	4.19531613	5.31186611	8.94173360	0.43155142	11.83611686	-3.74921554	2.44548755	9.96421545	-5.35932094	-1.19972100	10.23663462	-1.22820186	-2.66854769	0.24408545	-1.56017237	5.41621668	5.65270048	-0.18708949	11.04264224
4996	49.95000000	10.13461711	0.58057306	6.41969350	10.20598074	1.54817990	4.19562285	4.05513075	6.23261111	1.48597347	11.47149443	-3.87120637	2.07923118	10.02815592	-5.76734951	-0.42518802	10.37879869	-0.61962506	-2.71408395	1.24384492	2.64404055	6.82071126	5.66149835	-0.42575784	10.89859302
4997	49.96000000	9.90861413	0.40409694	6.34995231	10.20223981	0.47876676	4.12215832	2.45565601	4.19525386	2.28008436	11.32184766	-3.63299609	1.61072168	10.13415022	-4.40864110	0.07243116	10.13853558	0.04675681	-2.32576896	0.53411420	2.85878687	6.13852938	5.76247173	0.03495443	10.99362514
4998	49.97000000	9.66953351	0.25784824	6.20620533	9.97842648	-0.61424485	3.95826314	1.38062846	3.27139299	2.56947476	10.85278161	-3.23146118	1.17779379	9.96211882	-2.02396495	0.14860486	9.79472247	0.58314736	-1.61328085	-2.42245546	1.83447475	5.00781587	5.54934936	0.36303836	10.81189695
4999	49.98000000	9.20416920	0.01094029	6.08510389	9.59410060	-1.40583592	3.78734208	0.72417068	2.08789378	1.52039628	10.24215107	-2.77010339	1.07960433	9.64404998	-0.24088141	0.05527075	9.60237994	0.87124647	-0.97135738	-2.70983931	-0.63062660	4.87324236	5.00535012	0.82921445	11.03892381
5000	49.99000000	8.75126584	-0.16017898	6.03617849	9.12800439	-1.66005644	3.56485547	0.45252361	-1.75719604	1.06843394	9.54355150	-2.43230187	1.24157112	9.45877948	0.46267513	-0.30689296	9.56195403	1.01437660	-0.84078860	1.96414270	-1.51727542	6.13548187	5.36839221	1.14427060	10.88506339
5001	50.00000000	8.39726433	-0.29501792	5.99984330	8.74836383	-1.45920730	3.46299910	1.15212389	-5.33850782	3.84185650	8.82853897	-2.54334450	1.41158061	9.50573573	-0.07536024	-0.83773596	9.45696963	1.29569357	-1.20746051	5.49800747	-0.72612293	6.85369845	5.65303698	1.18489353	10.64554394
5002	50.01000000	8.12464052	-0.42114147	6.02128584	8.53086777	-0.93657002	3.50947021	2.65541416	-5.63997956	6.00966812	8.27767211	-2.87487859	1.41861882	9.48785398	-1.68991960	-1.11720221	9.29432664	1.58843405	-1.54615894	5.43626782	0.54774335	5.73669074	5.62280191	1.36889192	10.59967492
5003	50.02000000	8.06541038	-0.38769012	6.11699553	8.36996717	-0.28659693	3.51500279	4.30238466	-2.92831757	5.41630204	7.93122290	-3.47785938	1.33646549	9.40727313	-3.01624953	-1.14505256	9.34259200	1.74296000	-1.68061877	4.26007709	2.54767322	5.25217173	5.35903594	1.31578025	10.88892295
5004	50.03000000	8.06771243	-0.39480763	6.11416746	8.22418867	0.19864942	3.49701305	5.37161875	2.25847456	2.79177741	7.56228554	-3.92297931	1.44025268	9.47660884	-3.19279863	-0.84487481	9.64449146	1.61335792	-1.60795039	4.22636075	3.01603726	7.23762570	5.37826419	1.30760466	10.77586596
5005	50.04000000	7.92361194	-0.45863766	6.08573568	8.10281925	0.32012818	3.37246987	6.64435823	8.95303917	-0.97088687	6.90803779	-3.79388754	1.84225510	9.58456955	-2.58772487	-0.10987244	9.96593520	1.48296162	-1.56736509	5.59140371	2.05691045	9.67256155	5.54779515	1.17006714	10.79092250
5006	50.05000000	7.64611409	-0.51644047	6.06598627	7.94658695	-0.02596964	3.18970744	10.29213384	17.73416079	-2.37310459	6.14536171	-3.17546959	2.27266712	9.45562319	-1.92286580	0.09348532	9.88260418	1.35547736	-1.53588966	7.05776259	2.54070199	10.76182809	5.65505243	0.63612283	10.75951982
5007	50.06000000	7.48517891	-0.63485487	6.06341879	7.89314920	-0.64034409	2.97254350	13.42371016	22.30222419	-0.89781851	5.65079030	-2.33546762	2.45760368	9.37220047	-1.52545474	0.24827450	9.47463848	1.05309723	-1.40389066	8.32954964	4.51892789	10.81157676	5.68315548	0.65605510	10.79049368
5008	50.07000000	7.63493660	-0.69786569	6.16356953	7.98044150	-1.14984747	2.90968026	11.12372442	17.76503092	1.63952539	5.80202401	-1.47791387	2.28080395	9.42039368	-1.07844276	0.20146456	9.21761561	0.73112088	-1.18365047	9.80459669	6.05573914	10.79977593	5.25208165	0.68416519	10.92471100
5009	50.08000000	8.02526569	-0.73276527	6.23677524	8.13643496	-1.40510747	2.83423796	6.94630249	10.59092980	3.72301104	6.50947030	-0.60309353	2.03686235	9.38111967	-0.67609052	0.21983621	9.29461485	0.46781957	-0.92499883	11.82716730	5.86620419	11.34169762	5.63807806	0.79834864	10.75963004
5010	50.09000000	8.33998298	-0.69759717	6.23318249	8.40452753	-1.40777926	2.77013857	4.77951240	4.24401035	4.07071880	7.15627635	0.04298739	1.85997160	9.32885826	-0.70580340	-0.18226394	9.35699684	0.14092326	-0.68371289	14.34335313	4.63203895	11.70974313	5.71558184	0.88055590	10.68004818
5011	50.10000000	8.31114631	-0.64957295	6.25327384	8.64769614	-1.12006346	2.68773334	3.51750155	-0.01600514	2.24170444	7.53067677	0.41876048	1.91376636	9.62553879	-0.97913559	-0.97522101	9.38913754	-0.17829020	-0.57783164	15.90765785	3.76661856	11.82567542	5.60300920	1.06737145	10.61750425
5012	50.11000000	8.16137015	-0.68389533	6.30781520	8.86821010	-0.61093806	2.54361759	4.59951331	-1.14320206	0.53026699	7.67239674	0.27872476	2.12884176	9.60319658	-1.14421480	-0.98284491	9.30986529	-0.22551750	-0.77848804	16.74807706	2.87084342	11.47593143	5.32223381	1.26261255	10.96820983
5013	50.12000000	8.25954386	-0.72851802	6.30263818	9.07408244	-0.03437175	2.44350604	8.66382782	-0.44546844	0.53493632	7.95098006	-0.38219484	2.34363043	9.30832733	-1.37222579	-0.88041618	9.19320430	0.03178507	-1.17466095	16.66676409	1.53970502	10.35484216	5.61570375	1.29063550	10.75358980
5014	50.13000000	8.46207627	-0.76683433	6.37148179	9.20191187	0.54253236	2.33908364	13.96051791	0.71494739	1.08270576	8.52531005	-1.29320445	2.44059449	9.37466121	-1.30811630	-0.75530323	9.15343645	0.61238628	-1.51685119	16.33181786	0.34087785	9.31434995	5.61661857	1.15176436	10.59094214
5015	50.14000000	8.68260413	-0.66129518	6.43572704	9.31007971	0.98070112	2.29604671	17.20339420	1.52210276	0.99760272	9.04173273	-2.31270012	2.48417761	9.58335557	-1.14355617	-0.33197645	9.09832727	1.21670876	-1.59330684	17.42667564	-1.44599153	8.91351572	5.59461027	0.89087238	10.56719201
5016	50.15000000	8.93079360	-0.54692823	6.57720496	9.53785500	1.24293456	2.31910098	15.88546335	1.94577368	0.12188197	9.36530978	-3.41791573	2.45638126	9.92428831	-0.96297975	-0.35559589	9.26812152	1.76278031	-1.54065323	16.90713379	-2.63492294	8.33318382	5.37239528	0.52367306	10.99694457
5017	50.16000000	9.31447236	-0.56554426	6.74280872	9.79538857	1.29914907	2.32322069	12.62408767	2.66104712	-0.67403788	9.54107063	-4.56348671	2.28058734	10.37585613	-0.86323859	-0.24625089	9.57568638	2.08165393	-1.43681410	15.39272239	-2.95781659	7.49153305	5.17553131	0.24363192	11.12838781
5018	50.17000000	9.49182854	-0.60403048	6.68660123	10.08733386	1.18394920	2.35108666	10.96711434	3.05125045	-0.68906561	9.67893086	-5.37063759	2.14178173	10.24229576	-0.59640130	0.10147258	9.51311071	2.38206500	-1.32230333	15.54119790	-3.02797707	7.23907535	5.52612575	0.42482547	10.85662459
5019	50.18000000	9.52788519	-0.50200632	6.66178118	10.37645709	0.97613310	2.40312135	11.34318765	2.69541277	-0.16773106	9.96507668	-5.79996402	2.13371071	9.78413951	-0.19241961	-0.17064633	9.27595795	2.62428105	-1.34895947	16.83870218	-2.86286232	7.19256775	5.59989387	0.20521573	10.81956557
5020	50.19000000	9.54015697	-0.27905463	6.66858946	10.52859145	0.80285039	2.43199510	12.33907136	1.83118582	-0.05025109	10.11451542	-5.88992037	2.18903765	10.03219855	-0.02529245	-0.31717294	9.22783995	2.63908684	-1.44294883	16.26712611	-1.90981724	6.41573603	5.55483515	0.11870339	10.86915141
5021	50.20000000	9.59262704	-0.19847362	6.67345045	10.68319490	0.64805687	2.40593488	12.67900856	0.86642372	-0.10743147	9.99379754	-5.74473820	2.13694957	10.23718061	-0.24009922	-0.46801316	9.23374045	2.56902657	-1.53943992	14.91470718	-0.57721666	5.31102065	4.98021124	0.57757368	11.17774354
5022	50.21000000	9.70106203	-0.19068028	6.68700459	10.74438139	0.47710867	2.41230657	12.25061542	0.16519702	0.19064730	9.69882564	-5.52524777	2.08457248	10.07759356	-0.28640437	-0.93860412	9.28959653	2.36254915	-1.77390162	13.98172484	1.40074943	4.76935798	5.44061974	0.65156592	10.97182542
5023	50.22000000	9.66250135	-0.12742751	6.71676444	10.69356339	0.30954999	2.45040469	11.52904630	0.15281372	0.19149996	9.41484011	-5.34870363	2.26687322	9.97798534	-0.21753114	-1.06462365	9.08469760	2.32180728	-2.17912086	12.44632752	4.66737746	4.75926621	5.88854978	0.50723703	10.69249979
5024	50.23000000	9.60579125	0.01701272	6.72091821	10.57135279	0.18437404	2.47632971	10.76863611	1.22475391	-0.94209960	9.30881239	-5.23358569	2.64186375	9.95512132	-0.47358188	-0.96348704	8.79968305	2.44265161	-2.39822602	11.25229910	7.19249723	4.58800842	5.70795892	0.58988476	10.80159510
5025	50.24000000	9.46563265	0.11417204	6.68349998	10.37804502	0.12298761	2.53976765	9.82812570	2.52561194	-0.95152172	9.25630946	-5.45642302	2.88716209	9.93751765	-0.84144184	-1.00604255	8.99148303	2.54615471	-2.36773563	11.03408791	5.56851632	3.51244068	5.22957039	0.54684207	11.14521902
5026	50.25000000	9.23211130	0.16431106	6.68252998	10.10824469	-0.04101843	2.58127297	8.61252842	2.47596818	0.48092055	9.14053140	-6.15886258	2.78975317	10.05296884	-1.20048228	-0.77727794	9.29893787	2.58610094	-2.18863776	10.23031338	3.78366305	2.19830963	5.50400618	0.48635859	10.84340842
5027	50.26000000	9.08217876	0.22467615	6.73835913	9.81090346	-0.31763226	2.64714443	7.35465780	1.64201017	0.68148332	8.96455698	-6.75035394	2.56050131	9.98450182	-1.47555633	-0.71335199	9.42364822	2.25263994	-2.09328460	9.38427478	5.75550170	1.83578743	5.76197913	0.56881811	10.84668700
